{
  "accessors": [
    {
      "bufferView": 2,
      "componentType": 5126,
      "count": 65533,
      "max": [
        44.57337951660156,
        45.54460906982422,
        -40.894371032714844
      ],
      "min": [
        -44.57337951660156,
        -45.54460906982422,
        -73.82501220703125
      ],
      "type": "VEC3"
    },
    {
      "bufferView": 2,
      "byteOffset": 786396,
      "componentType": 5126,
      "count": 65533,
      "max": [
        0.9999890327453613,
        0.9999949932098389,
        0.9999996423721313
      ],
      "min": [
        -0.9999978542327881,
        -0.9999987483024597,
        -1.0
      ],
      "type": "VEC3"
    },
    {
      "bufferView": 1,
      "componentType": 5126,
      "count": 65533,
      "max": [
        0.9993900060653687,
        0.9970700144767761
      ],
      "min": [
        0.003289999905973673,
        0.6515300273895264
      ],
      "type": "VEC2"
    },
    {
      "bufferView": 0,
      "componentType": 5125,
      "count": 301158,
      "type": "SCALAR"
    },
    {
      "bufferView": 2,
      "byteOffset": 1572792,
      "componentType": 5126,
      "count": 65534,
      "max": [
        43.236209869384766,
        19.597200393676758,
        -73.29271697998047
      ],
      "min": [
        -41.600181579589844,
        -41.341739654541016,
        -73.82980346679688
      ],
      "type": "VEC3"
    },
    {
      "bufferView": 2,
      "byteOffset": 2359200,
      "componentType": 5126,
      "count": 65534,
      "max": [
        0.9666322469711304,
        0.7482153177261353,
        0.7613750696182251
      ],
      "min": [
        -0.9579819440841675,
        -0.9976759552955627,
        -1.0
      ],
      "type": "VEC3"
    },
    {
      "bufferView": 1,
      "byteOffset": 524264,
      "componentType": 5126,
      "count": 65534,
      "max": [
        0.9993900060653687,
        0.9328600168228149
      ],
      "min": [
        0.022089999169111252,
        0.6639900207519531
      ],
      "type": "VEC2"
    },
    {
      "bufferView": 0,
      "byteOffset": 1204632,
      "componentType": 5125,
      "count": 65562,
      "type": "SCALAR"
    },
    {
      "bufferView": 2,
      "byteOffset": 3145608,
      "componentType": 5126,
      "count": 37947,
      "max": [
        43.21514129638672,
        44.0948486328125,
        -44.39295959472656
      ],
      "min": [
        -42.786441802978516,
        -44.671451568603516,
        -73.83474731445313
      ],
      "type": "VEC3"
    },
    {
      "bufferView": 2,
      "byteOffset": 3600972,
      "componentType": 5126,
      "count": 37947,
      "max": [
        0.9998291730880737,
        0.9999483823776245,
        0.9999956488609314
      ],
      "min": [
        -0.9999608993530273,
        -0.9999750852584839,
        -1.0
      ],
      "type": "VEC3"
    },
    {
      "bufferView": 1,
      "byteOffset": 1048536,
      "componentType": 5126,
      "count": 37947,
      "max": [
        0.9993900060653687,
        0.9955400228500366
      ],
      "min": [
        0.0029899999499320984,
        0.6020500063896179
      ],
      "type": "VEC2"
    },
    {
      "bufferView": 0,
      "byteOffset": 1466880,
      "componentType": 5125,
      "count": 77040,
      "type": "SCALAR"
    }
  ],
  "asset": {
    "extras": {
      "author": "Polchi2021 (https://sketchfab.com/Polchi2021)",
      "license": "CC-BY-ND-4.0 (http://creativecommons.org/licenses/by-nd/4.0/)",
      "source": "https://sketchfab.com/3d-models/brownie-01-8c351b7966814365897003c08459c8a9",
      "title": "Brownie 01"
    },
    "generator": "Sketchfab-12.66.0",
    "version": "2.0"
  },
  "bufferViews": [
    {
      "buffer": 0,
      "byteLength": 1775040,
      "name": "floatBufferViews",
      "target": 34963
    },
    {
      "buffer": 0,
      "byteLength": 1352112,
      "byteOffset": 1775040,
      "byteStride": 8,
      "name": "floatBufferViews",
      "target": 34962
    },
    {
      "buffer": 0,
      "byteLength": 4056336,
      "byteOffset": 3127152,
      "byteStride": 12,
      "name": "floatBufferViews",
      "target": 34962
    }
  ],
  "buffers": [
    {
      "byteLength": 7183488,
      "uri": "scene.bin"
    }
  ],
  "extensionsUsed": [
    "KHR_materials_unlit"
  ],
  "images": [
    {
      "uri": "textures/material0_baseColor.jpeg"
    }
  ],
  "materials": [
    {
      "doubleSided": true,
      "emissiveTexture": {
        "index": 0
      },
      "extensions": {
        "KHR_materials_unlit": {}
      },
      "name": "material0",
      "pbrMetallicRoughness": {
        "baseColorTexture": {
          "index": 0
        },
        "metallicFactor": 0.0
      }
    }
  ],
  "meshes": [
    {
      "name": "Object_0",
      "primitives": [
        {
          "attributes": {
            "NORMAL": 1,
            "POSITION": 0,
            "TEXCOORD_0": 2
          },
          "indices": 3,
          "material": 0,
          "mode": 4
        }
      ]
    },
    {
      "name": "Object_1",
      "primitives": [
        {
          "attributes": {
            "NORMAL": 5,
            "POSITION": 4,
            "TEXCOORD_0": 6
          },
          "indices": 7,
          "material": 0,
          "mode": 4
        }
      ]
    },
    {
      "name": "Object_2",
      "primitives": [
        {
          "attributes": {
            "NORMAL": 9,
            "POSITION": 8,
            "TEXCOORD_0": 10
          },
          "indices": 11,
          "material": 0,
          "mode": 4
        }
      ]
    }
  ],
  "nodes": [
    {
      "children": [
        1
      ],
      "matrix": [
        1.0,
        0.0,
        0.0,
        0.0,
        0.0,
        -0.2749087810516355,
        -0.9614703059196473,
        0.0,
        0.0,
        0.9614703059196473,
        -0.2749087810516355,
        0.0,
        0.0,
        -2.210250854492184,
        -15.77000617980957,
        1.0
      ],
      "name": "Sketchfab_model"
    },
    {
      "children": [
        2,
        3,
        4
      ],
      "name": "model_New Qlone_20211210_201302423.obj.cleaner.materialmerger.gles"
    },
    {
      "mesh": 0,
      "name": "Object_2"
    },
    {
      "mesh": 1,
      "name": "Object_3"
    },
    {
      "mesh": 2,
      "name": "Object_4"
    }
  ],
  "samplers": [
    {
      "magFilter": 9729,
      "minFilter": 9987,
      "wrapS": 10497,
      "wrapT": 10497
    }
  ],
  "scene": 0,
  "scenes": [
    {
      "name": "Sketchfab_Scene",
      "nodes": [
        0
      ]
    }
  ],
  "textures": [
    {
      "sampler": 0,
      "source": 0
    }
  ]
}
